<svg width="50" height="50" viewBox="0 0 50 50" xmlns="http://www.w3.org/2000/svg"><title>icon_endo</title><defs><radialGradient cx="4.314%" cy="95.686%" fx="4.314%" fy="95.686%" r="126.27%" gradientTransform="rotate(-45 .029 .963) scale(1 1.01233)" id="a"><stop stop-color="#00892F" offset="0%"/><stop stop-color="#77D804" offset="100%"/></radialGradient></defs><g fill="none" fill-rule="evenodd"><path d="M17.432 0h15.136c5.02 0 7.529 0 10.23.854a10.62 10.62 0 0 1 6.348 6.347C50 9.903 50 12.413 50 17.432v15.136c0 5.02 0 7.529-.854 10.23a10.617 10.617 0 0 1-6.347 6.347C40.097 50 37.587 50 32.568 50H17.432c-5.02 0-7.53 0-10.23-.855A10.617 10.617 0 0 1 .853 42.8C0 40.097 0 37.587 0 32.568V17.432c0-5.02 0-7.53.854-10.23A10.62 10.62 0 0 1 7.201.853C9.903 0 12.413 0 17.432 0" fill="url(#a)"/><path d="M25.212 21.066h-.135c-2.11 0-3.83-.471-5.09-1.191 1.261-.722 2.982-1.195 5.094-1.195h.135c2.11 0 3.83.472 5.09 1.192-1.261.721-2.982 1.194-5.094 1.194m10.176-1.194c3.563-1.43 5.888-3.577 6.015-5.958 0 0-.94-.662-3.976-1.68-2.668-.896-4.7-1.101-4.7-1.101l.008 5.308c0 .792-.349 1.602-1.008 2.32a30.778 30.778 0 0 0-6.578-.695h-.001a30.8 30.8 0 0 0-6.586.696c-.659-.717-1.009-1.528-1.009-2.321l.01-5.308s-2.033.205-4.701 1.1c-3.036 1.019-3.975 1.68-3.975 1.68.125 2.383 2.453 4.531 6.018 5.96-3.563 1.43-5.888 3.578-6.015 5.96 0 0 .94.66 3.976 1.68 2.668.895 4.7 1.1 4.7 1.1l-.008-5.308c0-.792.349-1.602 1.007-2.319 2.016.445 4.243.693 6.579.693h.001c2.339 0 4.568-.249 6.586-.694.659.716 1.008 1.527 1.008 2.32l-.009 5.308s2.033-.205 4.701-1.1c3.036-1.02 3.975-1.68 3.975-1.68-.126-2.383-2.453-4.53-6.018-5.96" fill="#FEFEFE"/><g fill="#FFF"><path d="M4.713 37.828c.005-.126.028-.243.07-.35a.875.875 0 0 1 .174-.283.808.808 0 0 1 .276-.193.954.954 0 0 1 .38-.07c.29 0 .503.078.64.235.137.158.206.378.206.66H4.713zm.923-1.722c-.3 0-.574.048-.822.146-.249.096-.462.239-.64.428a1.965 1.965 0 0 0-.416.688c-.098.27-.147.578-.147.924 0 .692.17 1.226.508 1.604.339.377.845.566 1.517.566.559 0 .984-.12 1.277-.358.292-.239.474-.588.547-1.05H6.405c-.078.367-.331.551-.76.551-.311 0-.544-.093-.7-.28-.154-.185-.237-.444-.248-.774h2.81v-.44c0-.613-.157-1.1-.47-1.462-.313-.362-.78-.543-1.4-.543zM10.51 36.106c-.238 0-.467.055-.687.165-.22.11-.41.286-.57.527v-.566H8.196v4.104h1.087v-2.469c0-.12.024-.232.073-.334.05-.102.11-.19.183-.263.087-.079.182-.14.283-.181a.94.94 0 0 1 .36-.063.6.6 0 0 1 .435.157c.109.105.163.302.163.59v2.563h1.087v-2.713c0-.524-.112-.908-.334-1.151-.223-.244-.564-.366-1.024-.366M15.452 38.378c0 .236-.024.429-.073.578a.96.96 0 0 1-.23.381.902.902 0 0 1-.635.228.833.833 0 0 1-.334-.066.684.684 0 0 1-.272-.22 1.139 1.139 0 0 1-.182-.401 2.44 2.44 0 0 1-.066-.618c0-.225.024-.419.07-.582.046-.162.11-.293.19-.393.08-.1.173-.173.28-.22a.825.825 0 0 1 .337-.07c.109 0 .218.014.33.043.11.029.213.09.306.184.098.1.17.229.213.386.044.157.066.367.066.629v.141zm-.007-1.737a1.366 1.366 0 0 0-.563-.425c-.2-.073-.4-.11-.601-.11-.274 0-.52.052-.737.157a1.548 1.548 0 0 0-.552.445 2.07 2.07 0 0 0-.345.684c-.08.264-.12.557-.12.876 0 .687.14 1.224.42 1.612.278.388.703.582 1.272.582.527 0 .946-.223 1.257-.669v.543h1.056v-5.614h-1.087v1.919zM19.973 39.243c-.153.226-.384.338-.695.338-.315 0-.548-.111-.698-.334-.15-.223-.225-.547-.225-.971 0-.42.076-.74.229-.96.153-.22.384-.33.694-.33.31 0 .542.11.695.33.152.22.229.54.229.96 0 .42-.077.742-.23.967m.808-2.56a1.797 1.797 0 0 0-.648-.428 2.32 2.32 0 0 0-.854-.149c-.31 0-.592.05-.846.15-.253.099-.469.242-.647.428a1.88 1.88 0 0 0-.412.684c-.096.27-.143.572-.143.908 0 .702.178 1.242.535 1.62.357.377.861.566 1.513.566.31 0 .593-.05.846-.15.254-.1.47-.243.648-.432a1.92 1.92 0 0 0 .411-.688c.096-.27.144-.575.144-.916 0-.336-.047-.638-.14-.908a1.844 1.844 0 0 0-.407-.684M26.635 36.106c-.249 0-.476.055-.683.165-.207.11-.404.291-.59.543a.976.976 0 0 0-.396-.527c-.186-.12-.427-.181-.722-.181-.222 0-.434.055-.636.165-.201.11-.378.28-.528.511v-.55h-1.055v4.104h1.087v-2.469a.84.84 0 0 1 .24-.597.803.803 0 0 1 .268-.189.784.784 0 0 1 .299-.055c.067 0 .131.01.193.031a.355.355 0 0 1 .16.11.585.585 0 0 1 .105.217c.025.091.038.21.038.357v2.595h1.087V37.82c0-.105.022-.204.065-.299a.884.884 0 0 1 .176-.251.801.801 0 0 1 .267-.189.786.786 0 0 1 .299-.055c.067 0 .132.01.194.031a.352.352 0 0 1 .159.11c.044.053.079.125.105.217.025.091.038.21.038.357v2.595h1.087v-2.744c0-.524-.105-.903-.315-1.136-.209-.233-.523-.35-.942-.35M31.295 39.243c-.153.226-.385.338-.695.338-.315 0-.548-.111-.698-.334-.15-.223-.225-.547-.225-.971 0-.42.076-.74.229-.96.152-.22.383-.33.694-.33.31 0 .542.11.695.33.152.22.228.54.228.96 0 .42-.076.742-.228.967m.807-2.56a1.797 1.797 0 0 0-.648-.428 2.32 2.32 0 0 0-.854-.149c-.31 0-.592.05-.846.15-.253.099-.47.242-.648.428a1.88 1.88 0 0 0-.411.684c-.096.27-.144.572-.144.908 0 .702.179 1.242.536 1.62.356.377.861.566 1.513.566.31 0 .592-.05.846-.15.253-.1.47-.243.648-.432a1.92 1.92 0 0 0 .411-.688c.096-.27.144-.575.144-.916 0-.336-.047-.638-.14-.908a1.844 1.844 0 0 0-.407-.684M35.66 36.106c-.238 0-.467.055-.687.165-.22.11-.41.286-.57.527v-.566h-1.056v4.104h1.087v-2.469c0-.12.024-.232.073-.334.05-.102.11-.19.183-.263.088-.079.182-.14.283-.181a.942.942 0 0 1 .36-.063.6.6 0 0 1 .435.157c.11.105.163.302.163.59v2.563h1.087v-2.713c0-.524-.112-.908-.334-1.151-.223-.244-.564-.366-1.024-.366M40.602 38.378c0 .236-.024.429-.073.578a.96.96 0 0 1-.23.381.902.902 0 0 1-.635.228.833.833 0 0 1-.334-.066.684.684 0 0 1-.272-.22 1.139 1.139 0 0 1-.182-.401 2.44 2.44 0 0 1-.066-.618c0-.225.024-.419.07-.582.047-.162.11-.293.19-.393.08-.1.173-.173.28-.22a.825.825 0 0 1 .337-.07c.109 0 .218.014.33.043.11.029.214.09.306.184.099.1.17.229.213.386.044.157.066.367.066.629v.141zm-.007-1.737a1.366 1.366 0 0 0-.562-.425c-.2-.073-.4-.11-.602-.11-.274 0-.52.052-.737.157a1.545 1.545 0 0 0-.551.445 2.06 2.06 0 0 0-.345.684 3 3 0 0 0-.12.876c0 .687.139 1.224.418 1.612.28.388.704.582 1.273.582.528 0 .947-.223 1.257-.669v.543h1.056v-5.614h-1.087v1.919zM45.123 39.243c-.152.226-.384.338-.695.338-.315 0-.548-.111-.698-.334-.15-.223-.225-.547-.225-.971 0-.42.076-.74.229-.96.153-.22.384-.33.694-.33.31 0 .543.11.695.33.152.22.229.54.229.96 0 .42-.077.742-.229.967m1.215-1.875a1.844 1.844 0 0 0-.408-.684 1.797 1.797 0 0 0-.648-.429 2.32 2.32 0 0 0-.854-.149c-.31 0-.592.05-.846.15-.253.099-.469.242-.647.428a1.88 1.88 0 0 0-.412.684c-.096.27-.143.572-.143.908 0 .702.178 1.242.535 1.62.357.377.861.566 1.513.566.31 0 .593-.05.846-.15.254-.1.47-.243.648-.432a1.92 1.92 0 0 0 .412-.688c.095-.27.143-.575.143-.916 0-.336-.047-.638-.14-.908"/></g></g></svg>