<svg width="50" height="50" viewBox="0 0 50 50" xmlns="http://www.w3.org/2000/svg"><title>icon_mfp</title><defs><linearGradient x1="0%" y1="100%" y2="0%" id="a"><stop stop-color="#005896" offset="0%"/><stop stop-color="#0070BF" offset="38.995%"/><stop stop-color="#0096FF" offset="100%"/></linearGradient></defs><g fill="none" fill-rule="evenodd"><rect fill="url(#a)" width="50" height="50" rx="10.278"/><path d="M22.96 25.691l-4.462-6.52-1.112-.912s.017-.701.337-.777c.35-.085 1.005.493.898.31l.347 1.024 1.996 2.49 2.232 2.726.704.829s.353.593.822.475c.47-.119.588-.83.588-.83s-.528-.795-.47-1.067c.058-.271.756-.38 1.056-.592.301-.214.782-.535 1.215-.486.434.048.673.185.964.418.45.359.287.897.287 1.253 0 .355-.704.948-.704.948l-.822.474-.234.593.939-.593.94-.356s1.76 0 2.23-.118c.47-.119 2.467-1.067 2.467-1.067s1.879-.474 2.113-.474c.236 0 .729-.233 1.057 0 .33.234.243.32.118.593-.126.273-.236.39-.47.355-.233-.034-.587-.236-.587-.236l-1.41.71-1.057.237-.939.475-1.526.592-2.115.593s-.939 1.067-1.057 1.66c-.116.592-.703 1.896-.703 1.896l.351.83s.822.83.94 1.54c.117.712.47.475.939.712.47.237 1.175.711 1.175.711l1.174.948 1.174.83 1.175.475s1.41.355 1.88.592c.469.236 1.995 1.067 1.995 1.067l1.057.711 1.292.356h1.174l.47.711s0 .474-.587.355c-.588-.117-1.41-.117-1.41-.117l-.704-.119s-.939-.712-1.409-.83c-.47-.12-2.818-.83-2.818-.83l-3.172-1.068s-3.053-1.303-3.757-1.303c-.705 0-1.88-.118-2.231-.118-.353 0-2.114 1.185-2.114 1.185s-1.88.949-2.35 1.067c-.469.119-2.113 1.422-2.7 1.66-.587.237-2.114.592-2.466.71-.353.12-2.583.356-2.583.356l-.823.475s-.503.849-.705.948c-.202.1-.806-.028-.904-.112-.097-.086-.004-.177-.357-.177-.352 0-1.063.165-1.205.17-.141.007-.74-.126-.77-.365-.029-.239 1.201-.573 1.201-.573l1.118-.592s.503-.254.824-.324c.344-.076 1.033-.279 1.033-.279l2.466-.95 1.644-.71s1.174-1.068 1.644-1.304c.47-.237 1.997-1.185 1.997-1.185s1.394-.907 1.644-1.067c.248-.16.821-.119.821-.593s.236-1.778.236-1.778l.17-1.804s-.288-1.159-.288-1.515c0-.355-.344-.95 0-1.422.345-.471.118-1.067.118-1.067v-.83z" fill="#FFF"/><path d="M29.352 8.467c1.561-.681 2.58-1.705 2.635-2.84 0 0-.411-.316-1.742-.801-1.168-.427-2.059-.525-2.059-.525l.004 2.53c0 .378-.153.765-.441 1.106a12.452 12.452 0 0 0-2.882-.331h-.001c-1.025 0-2.001.12-2.885.332-.289-.342-.442-.728-.442-1.107l.004-2.53s-.89.098-2.06.525c-1.33.485-1.741.8-1.741.8.055 1.136 1.075 2.16 2.637 2.842-1.561.682-2.58 1.705-2.635 2.84 0 0 .411.316 1.742.802 1.168.427 2.059.524 2.059.524l-.004-2.53c0-.378.153-.764.441-1.106.883.212 1.859.33 2.882.331h.001c1.024 0 2.001-.119 2.885-.331.289.341.442.728.442 1.106l-.004 2.53s.89-.097 2.06-.524c1.33-.486 1.741-.801 1.741-.801-.055-1.136-1.075-2.16-2.637-2.842m-4.458.57h-.06c-.923 0-1.677-.225-2.23-.569.554-.344 1.307-.569 2.232-.569h.06c.925 0 1.678.225 2.23.568-.552.344-1.306.57-2.232.57" fill="#FEFEFE"/></g></svg>