<svg width="50" height="50" viewBox="0 0 50 50" xmlns="http://www.w3.org/2000/svg" xmlns:xlink="http://www.w3.org/1999/xlink"><title>icon_record</title><defs><path d="M17.432 0h15.136c5.02 0 7.529 0 10.23.854a10.62 10.62 0 0 1 6.348 6.347C50 9.903 50 12.413 50 17.432v15.136c0 5.02 0 7.529-.854 10.23a10.617 10.617 0 0 1-6.347 6.347C40.097 50 37.587 50 32.568 50H17.432c-5.02 0-7.53 0-10.23-.855A10.617 10.617 0 0 1 .853 42.8C0 40.097 0 37.587 0 32.568V17.432c0-5.02 0-7.53.854-10.23A10.62 10.62 0 0 1 7.201.853C9.903 0 12.413 0 17.432 0" id="a"/><radialGradient cx="93.594%" cy="0%" fx="93.594%" fy="0%" r="132.282%" id="b"><stop stop-color="#FF0020" offset="0%"/><stop stop-color="#BF0028" offset="100%"/></radialGradient></defs><g fill="none" fill-rule="evenodd"><use fill="#D6D6D6" xlink:href="#a"/><path fill="url(#b)" d="M0 0h50v50H0z"/><path d="M25.204 21.055l-.066.001h-.069c-2.108 0-3.827-.472-5.087-1.193 1.26-.723 2.98-1.196 5.091-1.196l.067-.001h.068c2.11 0 3.828.473 5.088 1.194-1.261.722-2.98 1.195-5.092 1.195m10.17-1.195c3.56-1.431 5.885-3.58 6.011-5.965 0 0-.939-.663-3.973-1.682-2.666-.896-4.698-1.102-4.698-1.102l.009 5.314c0 .794-.349 1.604-1.007 2.322a30.71 30.71 0 0 0-6.574-.695h-.002c-2.337 0-4.565.25-6.582.696-.658-.717-1.008-1.529-1.008-2.323l.01-5.314s-2.032.206-4.698 1.102c-3.035 1.02-3.973 1.682-3.973 1.682.126 2.385 2.452 4.535 6.015 5.967-3.561 1.431-5.885 3.58-6.011 5.965 0 0 .939.662 3.973 1.682 2.666.896 4.698 1.102 4.698 1.102l-.009-5.314c0-.793.349-1.604 1.006-2.322a30.63 30.63 0 0 0 6.575.694h.001c2.338 0 4.566-.249 6.582-.695.659.717 1.008 1.529 1.008 2.323l-.009 5.314s2.032-.206 4.698-1.102c3.035-1.02 3.973-1.682 3.973-1.682-.126-2.385-2.452-4.535-6.015-5.967" fill="#FEFEFE"/><g fill="#FEFEFE"><path d="M42.997 37.896v-1.387c0-.715-.498-1.211-.498-1.211-.52-.577-1.324-.576-1.324-.576h-4.23l1.07 1.144h3.148s.321-.024.532.258c0 0 .143.15.143.41v1.375c0 .296-.198.473-.198.473-.213.212-.478.196-.478.196l-3.416.002 1.077 1.142h2.331c.836 0 1.316-.55 1.316-.55.565-.57.527-1.276.527-1.276M20.96 38.578s-.305.015-.514-.21c0 0-.192-.173-.192-.466v-1.273l.002-.137c0 .035-.002-.233.2-.424.213-.213.497-.204.497-.204l2.584.001.762-1.143h-3.334c-.814-.005-1.333.515-1.333.515-.614.562-.582 1.287-.582 1.287v1.377c0 .78.556 1.283.556 1.283.576.559 1.32.538 1.32.538h3.387l-.768-1.144H20.96zM30.629 36.54c0-.793-.545-1.268-.545-1.268-.61-.596-1.365-.549-1.365-.549h-1.98c-.17 0-.89.01-1.466.664 0 0-.434.454-.434 1.161v1.372s-.02.747.599 1.307c0 0 .489.494 1.323.494l1.564.001.4-.001c.839 0 1.335-.524 1.335-.524.587-.548.569-1.264.569-1.264V36.54zm-1.198 1.348l-.002.05c0 .239-.174.416-.174.416-.211.218-.43.218-.502.224l-2.076.001c-.175 0-.34-.104-.454-.218 0 0-.184-.16-.184-.416l-.002-.021v-1.399c0-.235.145-.398.145-.398.22-.28.539-.26.539-.26l2.02-.001s.293-.016.515.227c0 0 .175.17.175.438v1.357zM14.909 36.084c.225-.238.513-.217.513-.217h2.863l.765-1.144h-3.661c-.163 0-.82.044-1.335.56 0 0-.5.449-.53 1.176v1.466c0 .743.521 1.227.521 1.227.588.601 1.39.569 1.39.569l3.464.001-.766-1.143h-2.722a.71.71 0 0 1-.51-.226s-.176-.158-.176-.447v-.125h1.951l-.002-1.14h-1.95v.023-.14a.647.647 0 0 1 .185-.44M11.945 38.27a1.89 1.89 0 0 0 .445-.375s.407-.424.435-1.11v-.236c0-.782-.5-1.245-.5-1.245-.603-.633-1.383-.58-1.383-.58H6.944v1.274l1.127 1.181v-1.313h2.89s.296-.024.52.235c0 0 .164.16.164.442v.168c0 .294-.161.442-.161.442-.211.253-.523.237-.523.237H8.274l1.14 1.189h1.144l.441.462c.092.094.65.68.65.68l1.611.001L11.9 38.3l.045-.028zM35.893 38.27a1.89 1.89 0 0 0 .445-.375s.407-.424.434-1.11v-.236c0-.782-.5-1.245-.5-1.245-.603-.633-1.383-.58-1.383-.58h-3.997v1.265l1.126 1.167v-1.29h2.89s.297-.024.52.235c0 0 .165.16.165.442v.168c0 .294-.162.442-.162.442-.211.253-.523.237-.523.237H32.23l1.131 1.189h1.144l.442.462c.091.094.648.68.648.68l1.613.001-1.36-1.423.045-.028z"/></g></g></svg>